<?xml version="1.0" encoding="UTF-8"?>
<!DOCTYPE svg PUBLIC "-//W3C//DTD SVG 1.1//EN" "http://www.w3.org/Graphics/SVG/1.1/DTD/svg11.dtd">
<svg xmlns="http://www.w3.org/2000/svg" version="1.1" width="836px" height="278px" style="shape-rendering:geometricPrecision; text-rendering:geometricPrecision; image-rendering:optimizeQuality; fill-rule:evenodd; clip-rule:evenodd" xmlns:xlink="http://www.w3.org/1999/xlink">
<g><path style="opacity:1" fill="#f0f0f2" d="M -0.5,-0.5 C 278.167,-0.5 556.833,-0.5 835.5,-0.5C 835.5,88.8333 835.5,178.167 835.5,267.5C 556.833,267.5 278.167,267.5 -0.5,267.5C -0.5,178.167 -0.5,88.8333 -0.5,-0.5 Z"/></g>
<g><path style="opacity:1" fill="#bea6f4" d="M 16.5,7.5 C 118.167,7.33334 219.834,7.5 321.5,8C 322,8.5 322.5,9 323,9.5C 323.667,20.1667 323.667,30.8333 323,41.5C 322.5,42 322,42.5 321.5,43C 219.833,43.6667 118.167,43.6667 16.5,43C 16,42.5 15.5,42 15,41.5C 14.3333,30.8333 14.3333,20.1667 15,9.5C 15.7172,8.9558 16.2172,8.28913 16.5,7.5 Z"/></g>
<g><path style="opacity:1" fill="#fcfafe" d="M 299.5,16.5 C 300.794,18.0478 301.461,20.0478 301.5,22.5C 301.167,24.5 300.833,26.5 300.5,28.5C 299.509,24.5546 299.176,20.5546 299.5,16.5 Z"/></g>
<g><path style="opacity:1" fill="#f8f5fd" d="M 31.5,18.5 C 35.2568,18.0708 38.7568,18.7375 42,20.5C 42.8259,26.1764 40.3259,28.843 34.5,28.5C 34.5,30.1667 34.5,31.8333 34.5,33.5C 33.5,33.5 32.5,33.5 31.5,33.5C 31.5,28.5 31.5,23.5 31.5,18.5 Z"/></g>
<g><path style="opacity:1" fill="#f6f2fd" d="M 44.5,18.5 C 47.5788,18.2601 50.5788,18.5934 53.5,19.5C 54.952,22.2815 54.6187,24.7815 52.5,27C 54.0412,28.5793 55.2078,30.4127 56,32.5C 58.0068,27.9801 59.5068,23.3134 60.5,18.5C 62.288,18.2148 63.9547,18.5481 65.5,19.5C 67.4488,24.0104 68.7821,28.6771 69.5,33.5C 68.5,33.5 67.5,33.5 66.5,33.5C 66.5,32.5 66.5,31.5 66.5,30.5C 64.1667,30.5 61.8333,30.5 59.5,30.5C 59.5,31.5 59.5,32.5 59.5,33.5C 57.076,33.8076 54.7427,33.4742 52.5,32.5C 49.1156,25.6231 47.4489,25.9564 47.5,33.5C 46.5,33.5 45.5,33.5 44.5,33.5C 44.5,28.5 44.5,23.5 44.5,18.5 Z"/></g>
<g><path style="opacity:1" fill="#f8f6fe" d="M 84.5,18.5 C 87.8984,18.1796 91.2317,18.513 94.5,19.5C 92.2573,20.4742 89.924,20.8076 87.5,20.5C 87.5,21.8333 87.5,23.1667 87.5,24.5C 96.8333,25.1667 96.8333,25.8333 87.5,26.5C 87.5,28.1667 87.5,29.8333 87.5,31.5C 89.924,31.1924 92.2573,31.5258 94.5,32.5C 91.2317,33.487 87.8984,33.8204 84.5,33.5C 84.5,28.5 84.5,23.5 84.5,18.5 Z"/></g>
<g><path style="opacity:1" fill="#f7f4fd" d="M 97.5,18.5 C 101.007,17.9935 104.174,18.6602 107,20.5C 108.14,23.5282 107.306,25.6949 104.5,27C 106.414,28.4133 107.747,30.2466 108.5,32.5C 107.635,33.5827 106.635,33.7494 105.5,33C 102.396,25.7424 100.73,25.9091 100.5,33.5C 99.5,33.5 98.5,33.5 97.5,33.5C 97.5,28.5 97.5,23.5 97.5,18.5 Z"/></g>
<g><path style="opacity:1" fill="#f7f4fd" d="M 138.5,18.5 C 140.857,18.3367 143.19,18.5034 145.5,19C 145.957,19.414 146.291,19.914 146.5,20.5C 145.078,21.5472 143.578,21.5472 142,20.5C 140.72,20.6135 139.887,21.2801 139.5,22.5C 141.988,24.0693 144.488,25.736 147,27.5C 147.825,29.7008 147.325,31.5341 145.5,33C 142.833,33.6667 140.167,33.6667 137.5,33C 137.043,32.586 136.709,32.086 136.5,31.5C 146.95,31.1811 147.117,28.8478 137,24.5C 136.252,22.1599 136.752,20.1599 138.5,18.5 Z"/></g>
<g><path style="opacity:1" fill="#f5f2fd" d="M 152.5,18.5 C 160.819,18.3442 163.652,22.3442 161,30.5C 157.287,34.4875 153.62,34.4875 150,30.5C 148.773,25.938 149.607,21.938 152.5,18.5 Z"/></g>
<g><path style="opacity:1" fill="#f6f2fd" d="M 162.5,18.5 C 163.5,18.5 164.5,18.5 165.5,18.5C 165.334,22.5138 165.501,26.5138 166,30.5C 167.458,31.7468 168.958,31.7468 170.5,30.5C 171.491,26.5546 171.824,22.5546 171.5,18.5C 172.5,18.5 173.5,18.5 174.5,18.5C 174.666,22.5138 174.499,26.5138 174,30.5C 170.333,34.5 166.667,34.5 163,30.5C 162.501,26.5138 162.334,22.5138 162.5,18.5 Z"/></g>
<g><path style="opacity:1" fill="#f8f6fe" d="M 203.5,18.5 C 206.93,18.1065 210.096,18.7732 213,20.5C 213.92,23.3083 213.087,25.4749 210.5,27C 212.081,28.828 213.415,30.828 214.5,33C 213.056,33.7805 211.723,33.6139 210.5,32.5C 207.323,25.5808 205.323,25.9142 204.5,33.5C 203.506,28.544 203.173,23.544 203.5,18.5 Z"/></g>
<g><path style="opacity:1" fill="#f8f6fe" d="M 216.5,18.5 C 219.898,18.1796 223.232,18.513 226.5,19.5C 225.311,20.4287 223.978,20.762 222.5,20.5C 222.5,24.1667 222.5,27.8333 222.5,31.5C 223.978,31.238 225.311,31.5713 226.5,32.5C 223.167,33.8333 219.833,33.8333 216.5,32.5C 217.325,31.6143 218.325,31.281 219.5,31.5C 219.5,27.8333 219.5,24.1667 219.5,20.5C 217.821,20.7148 216.821,20.0481 216.5,18.5 Z"/></g>
<g><path style="opacity:1" fill="#f6f2fd" d="M 231.5,18.5 C 234.119,18.2317 236.619,18.565 239,19.5C 239.591,20.4835 239.257,21.1501 238,21.5C 235.729,19.8753 233.896,20.2086 232.5,22.5C 234.457,24.4848 236.79,25.9848 239.5,27C 241.14,29.7758 240.473,31.7758 237.5,33C 234.571,33.7772 231.737,33.6105 229,32.5C 228.312,31.6683 228.479,31.0016 229.5,30.5C 231.432,31.5202 233.432,31.6869 235.5,31C 236.337,29.9887 236.67,28.8221 236.5,27.5C 229.884,26.9334 228.218,23.9334 231.5,18.5 Z"/></g>
<g><path style="opacity:1" fill="#f6f3fd" d="M 241.5,18.5 C 246.844,18.334 252.177,18.5006 257.5,19C 258.794,21.087 259.961,23.2537 261,25.5C 262.039,23.2537 263.206,21.087 264.5,19C 265.635,18.2506 266.635,18.4173 267.5,19.5C 264.126,23.5763 262.46,28.243 262.5,33.5C 261.5,33.5 260.5,33.5 259.5,33.5C 259.797,29.0888 258.631,25.0888 256,21.5C 253.959,20.5769 251.792,20.2436 249.5,20.5C 249.5,24.8333 249.5,29.1667 249.5,33.5C 248.5,33.5 247.5,33.5 246.5,33.5C 246.5,29.1667 246.5,24.8333 246.5,20.5C 244.219,20.9227 242.552,20.256 241.5,18.5 Z"/></g>
<g><path style="opacity:1" fill="#c2abf4" d="M 34.5,20.5 C 38.5273,20.2596 39.8607,21.9263 38.5,25.5C 37.2638,26.2458 35.9305,26.5792 34.5,26.5C 34.5,24.5 34.5,22.5 34.5,20.5 Z"/></g>
<g><path style="opacity:1" fill="#c2acf4" d="M 47.5,20.5 C 51.1612,20.3501 52.1612,21.8501 50.5,25C 49.552,25.4828 48.552,25.6495 47.5,25.5C 47.5,23.8333 47.5,22.1667 47.5,20.5 Z"/></g>
<g><path style="opacity:1" fill="#c0a9f4" d="M 100.5,20.5 C 104.161,20.3501 105.161,21.8501 103.5,25C 102.552,25.4828 101.552,25.6495 100.5,25.5C 100.5,23.8333 100.5,22.1667 100.5,20.5 Z"/></g>
<g><path style="opacity:1" fill="#c6b1f5" d="M 205.5,20.5 C 207.714,20.2907 209.381,21.124 210.5,23C 209.381,24.876 207.714,25.7093 205.5,25.5C 205.5,23.8333 205.5,22.1667 205.5,20.5 Z"/></g>
<g><path style="opacity:1" fill="#c0a9f4" d="M 154.5,20.5 C 157.359,20.8007 158.693,22.4673 158.5,25.5C 158.85,29.9973 157.016,31.664 153,30.5C 152.063,26.8326 152.563,23.4993 154.5,20.5 Z"/></g>
<g><path style="opacity:1" fill="#c3adf4" d="M 62.5,21.5 C 63.5783,23.5394 64.5783,25.706 65.5,28C 64.2068,28.49 62.8734,28.6567 61.5,28.5C 61.448,26.0971 61.7814,23.7638 62.5,21.5 Z"/></g>
<g><path style="opacity:1" fill="#f5f1fd" d="M 271.5,18.5 C 273.288,18.2148 274.955,18.5481 276.5,19.5C 278.099,23.7959 279.599,28.1292 281,32.5C 281.499,27.8452 281.666,23.1785 281.5,18.5C 283.144,18.2865 284.644,18.6198 286,19.5C 287.333,22.8333 288.667,26.1667 290,29.5C 290.499,25.8484 290.665,22.1817 290.5,18.5C 291.5,18.5 292.5,18.5 293.5,18.5C 293.5,23.5 293.5,28.5 293.5,33.5C 292.022,33.762 290.689,33.4287 289.5,32.5C 287.726,29.2852 286.226,25.9518 285,22.5C 284.501,26.1516 284.335,29.8183 284.5,33.5C 282.167,33.5 279.833,33.5 277.5,33.5C 277.5,32.5 277.5,31.5 277.5,30.5C 275.167,30.5 272.833,30.5 270.5,30.5C 270.5,31.5 270.5,32.5 270.5,33.5C 269.5,33.5 268.5,33.5 267.5,33.5C 268.833,28.5 270.167,23.5 271.5,18.5 Z"/></g>
<g><path style="opacity:1" fill="#c3adf4" d="M 273.5,21.5 C 274.578,23.5394 275.578,25.706 276.5,28C 275.207,28.49 273.873,28.6567 272.5,28.5C 272.448,26.0971 272.781,23.7638 273.5,21.5 Z"/></g>
<g><path style="opacity:1" fill="#f6f2fd" d="M 189.5,18.5 C 190.5,18.5 191.5,18.5 192.5,18.5C 192.338,20.5273 192.505,22.5273 193,24.5C 194.484,20.9828 196.984,19.1495 200.5,19C 198.5,21.3333 196.5,23.6667 194.5,26C 196.874,28.039 198.874,30.3723 200.5,33C 196.984,32.8505 194.484,31.0172 193,27.5C 192.505,29.4727 192.338,31.4727 192.5,33.5C 191.5,33.5 190.5,33.5 189.5,33.5C 189.5,28.5 189.5,23.5 189.5,18.5 Z"/></g>
<g><path style="opacity:1" fill="#f9f7fe" d="M 70.5,18.5 C 74.226,18.1774 77.8927,18.5108 81.5,19.5C 79.4164,23.3359 77.083,27.0026 74.5,30.5C 76.8333,31.1667 79.1667,31.8333 81.5,32.5C 77.8333,33.8333 74.1667,33.8333 70.5,32.5C 72.5836,28.6641 74.917,24.9974 77.5,21.5C 74.7051,21.0615 72.3717,20.0615 70.5,18.5 Z"/></g>
<g><path style="opacity:1" fill="#f6f3fd" d="M 114.5,29.5 C 118.071,29.4077 119.238,31.0743 118,34.5C 116.395,37.2735 114.228,37.9402 111.5,36.5C 112.737,35.7193 113.737,34.7193 114.5,33.5C 113.193,32.135 113.193,30.8016 114.5,29.5 Z"/></g>
<g><path style="opacity:1" fill="#f3effd" d="M 298.5,30.5 C 299.833,30.5 301.167,30.5 302.5,30.5C 302.5,31.5 302.5,32.5 302.5,33.5C 301.167,33.5 299.833,33.5 298.5,33.5C 298.5,32.5 298.5,31.5 298.5,30.5 Z"/></g>
<g><path style="opacity:1" fill="#6b38c3" d="M 182.5,85.5 C 182.818,90.0323 182.485,94.3656 181.5,98.5C 175.121,95.7125 168.455,94.8791 161.5,96C 156.784,97.4942 155.284,100.661 157,105.5C 162.974,109.905 169.474,113.405 176.5,116C 186.919,123.178 189.086,132.345 183,143.5C 178.434,148.866 172.601,151.699 165.5,152C 159.126,152.608 152.793,152.275 146.5,151C 144.509,150.626 142.842,149.793 141.5,148.5C 141.182,143.968 141.515,139.634 142.5,135.5C 150.263,140.565 158.596,141.731 167.5,139C 171.5,135.333 171.5,131.667 167.5,128C 161.954,125.06 156.287,122.394 150.5,120C 140.318,113.353 137.818,104.52 143,93.5C 146.979,88.4257 152.146,85.259 158.5,84C 166.586,83.2391 174.586,83.7391 182.5,85.5 Z"/></g>
<g><path style="opacity:1" fill="#6028b8" d="M 49.5,84.5 C 48.5959,88.6201 48.5959,92.6201 49.5,96.5C 45.1667,96.5 40.8333,96.5 36.5,96.5C 36.1707,111.01 36.5041,125.343 37.5,139.5C 41.1667,139.5 44.8333,139.5 48.5,139.5C 48.8335,143.333 48.8335,147.333 48.5,151.5C 39.5,151.5 30.5,151.5 21.5,151.5C 21.5,129.167 21.5,106.833 21.5,84.5C 30.8333,84.5 40.1667,84.5 49.5,84.5 Z"/></g>
<g><path style="opacity:1" fill="#652fbe" d="M 130.5,84.5 C 130.5,88.5 130.5,92.5 130.5,96.5C 122.648,96.1746 114.982,96.508 107.5,97.5C 107.5,102.167 107.5,106.833 107.5,111.5C 114.833,111.5 122.167,111.5 129.5,111.5C 129.5,115.5 129.5,119.5 129.5,123.5C 122.167,123.5 114.833,123.5 107.5,123.5C 107.5,128.833 107.5,134.167 107.5,139.5C 115.833,139.5 124.167,139.5 132.5,139.5C 132.5,143.5 132.5,147.5 132.5,151.5C 119.167,151.5 105.833,151.5 92.5,151.5C 92.5,129.167 92.5,106.833 92.5,84.5C 105.167,84.5 117.833,84.5 130.5,84.5 Z"/></g>
<g><path style="opacity:1" fill="#6f3dc7" d="M 235.5,84.5 C 235.5,88.5 235.5,92.5 235.5,96.5C 227.648,96.1746 219.982,96.508 212.5,97.5C 212.5,102.167 212.5,106.833 212.5,111.5C 219.833,111.5 227.167,111.5 234.5,111.5C 234.5,115.5 234.5,119.5 234.5,123.5C 227.167,123.5 219.833,123.5 212.5,123.5C 212.5,128.833 212.5,134.167 212.5,139.5C 220.833,139.5 229.167,139.5 237.5,139.5C 237.5,143.5 237.5,147.5 237.5,151.5C 224.167,151.5 210.833,151.5 197.5,151.5C 197.5,129.167 197.5,106.833 197.5,84.5C 210.167,84.5 222.833,84.5 235.5,84.5 Z"/></g>
<g><path style="opacity:1" fill="#7647cd" d="M 293.5,128.5 C 293.369,129.376 293.702,130.043 294.5,130.5C 295.499,115.181 295.833,99.8478 295.5,84.5C 299.833,84.5 304.167,84.5 308.5,84.5C 308.5,106.833 308.5,129.167 308.5,151.5C 303.456,151.827 298.456,151.494 293.5,150.5C 284.058,135.928 274.391,121.595 264.5,107.5C 264.539,106.244 264.039,105.244 263,104.5C 262.5,120.163 262.333,135.83 262.5,151.5C 257.833,151.5 253.167,151.5 248.5,151.5C 248.5,129.167 248.5,106.833 248.5,84.5C 254.206,84.1712 259.872,84.5046 265.5,85.5C 274.859,99.851 284.193,114.184 293.5,128.5 Z"/></g>
<g><path style="opacity:1" fill="#a98ddd" d="M 295.5,84.5 C 295.833,99.8478 295.499,115.181 294.5,130.5C 293.702,130.043 293.369,129.376 293.5,128.5C 294.167,113.833 294.833,99.1667 295.5,84.5 Z"/></g>
<g><path style="opacity:1" fill="#7d50d3" d="M 347.5,131.5 C 347.372,133.655 347.872,135.655 349,137.5C 350.269,136.095 350.769,134.429 350.5,132.5C 354.757,116.727 359.424,101.06 364.5,85.5C 369.456,84.5059 374.456,84.1725 379.5,84.5C 372.491,106.195 365.324,127.862 358,149.5C 355.276,150.776 352.276,151.442 349,151.5C 345.724,151.442 342.724,150.776 340,149.5C 332.398,128.193 324.898,106.86 317.5,85.5C 323.054,84.1941 328.554,84.1941 334,85.5C 338.501,100.84 343.001,116.174 347.5,131.5 Z"/></g>
<g><path style="opacity:1" fill="#865ddc" d="M 461.5,84.5 C 466.167,84.5 470.833,84.5 475.5,84.5C 475.5,102.833 475.5,121.167 475.5,139.5C 483.833,139.5 492.167,139.5 500.5,139.5C 500.5,143.5 500.5,147.5 500.5,151.5C 487.5,151.5 474.5,151.5 461.5,151.5C 461.5,129.167 461.5,106.833 461.5,84.5 Z"/></g>
<g><path style="opacity:1" fill="#8e67e2" d="M 527.5,131.5 C 527.372,133.655 527.872,135.655 529,137.5C 530.269,136.095 530.769,134.429 530.5,132.5C 534.864,116.765 539.53,101.098 544.5,85.5C 549.456,84.5059 554.456,84.1725 559.5,84.5C 552.8,106.291 545.633,127.958 538,149.5C 535.276,150.776 532.276,151.442 529,151.5C 525.724,151.442 522.724,150.776 520,149.5C 511.939,128.151 504.773,106.485 498.5,84.5C 503.762,84.1953 508.928,84.5286 514,85.5C 518.501,100.84 523.001,116.174 527.5,131.5 Z"/></g>
<g><path style="opacity:1" fill="#926ee6" d="M 607.5,96.5 C 599.5,96.5 591.5,96.5 583.5,96.5C 583.179,101.695 583.513,106.695 584.5,111.5C 591.5,111.5 598.5,111.5 605.5,111.5C 605.5,115.5 605.5,119.5 605.5,123.5C 598.167,123.5 590.833,123.5 583.5,123.5C 583.5,128.833 583.5,134.167 583.5,139.5C 591.833,139.5 600.167,139.5 608.5,139.5C 608.5,143.5 608.5,147.5 608.5,151.5C 595.167,151.5 581.833,151.5 568.5,151.5C 568.5,129.167 568.5,106.833 568.5,84.5C 581.5,84.5 594.5,84.5 607.5,84.5C 607.5,88.5 607.5,92.5 607.5,96.5 Z"/></g>
<g><path style="opacity:1" fill="#a588f7" d="M 763.5,84.5 C 775.221,84.1128 786.887,84.6128 798.5,86C 812.076,91.3926 815.242,100.559 808,113.5C 804.731,116.883 800.897,119.383 796.5,121C 799.63,123.128 802.463,125.628 805,128.5C 809.698,135.701 814.198,143.035 818.5,150.5C 813.198,151.663 807.864,151.829 802.5,151C 797.616,142.119 791.949,133.786 785.5,126C 783.19,125.503 780.857,125.337 778.5,125.5C 778.5,134.167 778.5,142.833 778.5,151.5C 773.5,151.5 768.5,151.5 763.5,151.5C 763.5,129.167 763.5,106.833 763.5,84.5 Z"/></g>
<g><path style="opacity:1" fill="#632cbb" d="M 49.5,84.5 C 74.5613,87.6084 84.728,101.608 80,126.5C 75.3634,142.084 64.8634,150.417 48.5,151.5C 48.8335,147.333 48.8335,143.333 48.5,139.5C 60.0302,136.665 65.6969,129.165 65.5,117C 65.4834,106.149 60.1501,99.6491 49.5,97.5C 49.5,97.1667 49.5,96.8333 49.5,96.5C 48.5959,92.6201 48.5959,88.6201 49.5,84.5 Z"/></g>
<g><path style="opacity:1" fill="#8359d9" d="M 411.5,83.5 C 430.909,81.7703 443.409,90.1036 449,108.5C 452.469,125.903 446.969,139.403 432.5,149C 411.549,157.264 396.049,151.43 386,131.5C 381.454,116.027 384.621,102.527 395.5,91C 400.426,87.424 405.76,84.924 411.5,83.5 Z"/></g>
<g><path style="opacity:1" fill="#9e7ff0" d="M 712.5,83.5 C 742.212,83.2088 755.045,97.8755 751,127.5C 744.812,146.655 731.645,154.822 711.5,152C 698.259,148.424 690.092,139.924 687,126.5C 683.761,104.952 692.261,90.6183 712.5,83.5 Z"/></g>
<g><path style="opacity:1" fill="#9977ec" d="M 619.5,84.5 C 630.172,84.3335 640.839,84.5002 651.5,85C 674.246,89.6147 683.08,103.448 678,126.5C 674.059,141.107 664.559,149.273 649.5,151C 639.506,151.5 629.506,151.666 619.5,151.5C 619.5,129.167 619.5,106.833 619.5,84.5 Z"/></g>
<g><path style="opacity:1" fill="#916cd1" d="M 182.5,85.5 C 183.812,90.0152 183.812,94.6819 182.5,99.5C 181.893,99.3764 181.56,99.0431 181.5,98.5C 182.485,94.3656 182.818,90.0323 182.5,85.5 Z"/></g>
<g><path style="opacity:1" fill="#c1aee1" d="M 130.5,84.5 C 131.485,88.6344 131.818,92.9677 131.5,97.5C 123.5,97.5 115.5,97.5 107.5,97.5C 114.982,96.508 122.648,96.1746 130.5,96.5C 130.5,92.5 130.5,88.5 130.5,84.5 Z"/></g>
<g><path style="opacity:1" fill="#c5b3e4" d="M 235.5,84.5 C 236.485,88.6344 236.818,92.9677 236.5,97.5C 228.5,97.5 220.5,97.5 212.5,97.5C 219.982,96.508 227.648,96.1746 235.5,96.5C 235.5,92.5 235.5,88.5 235.5,84.5 Z"/></g>
<g><path style="opacity:1" fill="#efeef2" d="M 432.5,107.5 C 433.275,112.797 433.608,118.13 433.5,123.5C 431.583,136.24 424.25,141.407 411.5,139C 405.252,135.672 401.585,130.506 400.5,123.5C 400.392,118.13 400.725,112.797 401.5,107.5C 406.786,96.2767 415.12,93.4433 426.5,99C 429.523,101.177 431.523,104.011 432.5,107.5 Z"/></g>
<g><path style="opacity:1" fill="#d9cfef" d="M 607.5,96.5 C 600.018,97.492 592.352,97.8254 584.5,97.5C 584.5,102.167 584.5,106.833 584.5,111.5C 583.513,106.695 583.179,101.695 583.5,96.5C 591.5,96.5 599.5,96.5 607.5,96.5 Z"/></g>
<g><path style="opacity:1" fill="#efeef2" d="M 714.5,96.5 C 725.211,95.1011 732.378,99.4344 736,109.5C 738.694,120.279 736.194,129.446 728.5,137C 715.636,142.607 707.136,138.774 703,125.5C 699.224,112.435 703.057,102.768 714.5,96.5 Z"/></g>
<g><path style="opacity:1" fill="#eeeef3" d="M 778.5,95.5 C 784.605,94.651 790.105,95.9843 795,99.5C 797.336,106.999 794.836,111.832 787.5,114C 784.518,114.498 781.518,114.665 778.5,114.5C 778.5,108.167 778.5,101.833 778.5,95.5 Z"/></g>
<g><path style="opacity:1" fill="#ccbee4" d="M 49.5,96.5 C 49.5,96.8333 49.5,97.1667 49.5,97.5C 45.5,97.5 41.5,97.5 37.5,97.5C 37.5,111.5 37.5,125.5 37.5,139.5C 36.5041,125.343 36.1707,111.01 36.5,96.5C 40.8333,96.5 45.1667,96.5 49.5,96.5 Z"/></g>
<g><path style="opacity:1" fill="#efeef2" d="M 49.5,97.5 C 60.1501,99.6491 65.4834,106.149 65.5,117C 65.6969,129.165 60.0302,136.665 48.5,139.5C 44.8333,139.5 41.1667,139.5 37.5,139.5C 37.5,125.5 37.5,111.5 37.5,97.5C 41.5,97.5 45.5,97.5 49.5,97.5 Z"/></g>
<g><path style="opacity:1" fill="#dad1f0" d="M 647.5,97.5 C 643.5,97.5 639.5,97.5 635.5,97.5C 635.5,111.5 635.5,125.5 635.5,139.5C 634.504,125.343 634.171,111.01 634.5,96.5C 639.032,96.1818 643.366,96.5151 647.5,97.5 Z"/></g>
<g><path style="opacity:1" fill="#f0eff2" d="M 647.5,97.5 C 661.067,100.947 666.234,109.614 663,123.5C 658.565,136.515 649.398,141.848 635.5,139.5C 635.5,125.5 635.5,111.5 635.5,97.5C 639.5,97.5 643.5,97.5 647.5,97.5 Z"/></g>
<g><path style="opacity:1" fill="#d4c9e9" d="M 264.5,107.5 C 263.833,122.167 263.167,136.833 262.5,151.5C 262.333,135.83 262.5,120.163 263,104.5C 264.039,105.244 264.539,106.244 264.5,107.5 Z"/></g>
<g><path style="opacity:1" fill="#c0ade6" d="M 401.5,107.5 C 400.725,112.797 400.392,118.13 400.5,123.5C 399.837,121.527 399.504,119.361 399.5,117C 399.328,113.523 399.994,110.356 401.5,107.5 Z"/></g>
<g><path style="opacity:1" fill="#baa4e6" d="M 432.5,107.5 C 434.006,110.356 434.672,113.523 434.5,117C 434.496,119.361 434.163,121.527 433.5,123.5C 433.608,118.13 433.275,112.797 432.5,107.5 Z"/></g>
<g><path style="opacity:1" fill="#b59de2" d="M 347.5,131.5 C 348.268,132.263 348.768,133.263 349,134.5C 349.278,133.584 349.778,132.918 350.5,132.5C 350.769,134.429 350.269,136.095 349,137.5C 347.872,135.655 347.372,133.655 347.5,131.5 Z"/></g>
<g><path style="opacity:1" fill="#bea9ea" d="M 527.5,131.5 C 528.268,132.263 528.768,133.263 529,134.5C 529.278,133.584 529.778,132.918 530.5,132.5C 530.769,134.429 530.269,136.095 529,137.5C 527.872,135.655 527.372,133.655 527.5,131.5 Z"/></g>
<g><path style="opacity:1" fill="#9e7ed4" d="M 142.5,135.5 C 141.515,139.634 141.182,143.968 141.5,148.5C 140.188,143.985 140.188,139.318 141.5,134.5C 142.107,134.624 142.44,134.957 142.5,135.5 Z"/></g>
<g><path style="opacity:1" fill="#6028b8" d="M 60.5,192.5 C 52.5,192.5 44.5,192.5 36.5,192.5C 36.1778,198.358 36.5111,204.025 37.5,209.5C 44.5,209.5 51.5,209.5 58.5,209.5C 58.5,213.5 58.5,217.5 58.5,221.5C 51.1667,221.5 43.8333,221.5 36.5,221.5C 36.5,230.167 36.5,238.833 36.5,247.5C 31.5,247.5 26.5,247.5 21.5,247.5C 21.5,225.167 21.5,202.833 21.5,180.5C 34.5,180.5 47.5,180.5 60.5,180.5C 60.5,184.5 60.5,188.5 60.5,192.5 Z"/></g>
<g><path style="opacity:1" fill="#6630be" d="M 71.5,180.5 C 76.1667,180.5 80.8333,180.5 85.5,180.5C 85.3334,195.17 85.5001,209.837 86,224.5C 89.7221,235.526 96.8888,238.359 107.5,233C 109.068,230.696 110.235,228.196 111,225.5C 111.5,210.504 111.667,195.504 111.5,180.5C 116.5,180.5 121.5,180.5 126.5,180.5C 126.667,195.837 126.5,211.17 126,226.5C 122.47,241.676 112.803,249.009 97,248.5C 82.7285,248.535 74.3952,241.535 72,227.5C 71.5001,211.837 71.3334,196.17 71.5,180.5 Z"/></g>
<g><path style="opacity:1" fill="#6833c1" d="M 141.5,180.5 C 146.167,180.5 150.833,180.5 155.5,180.5C 155.5,198.833 155.5,217.167 155.5,235.5C 163.833,235.5 172.167,235.5 180.5,235.5C 180.5,239.5 180.5,243.5 180.5,247.5C 167.5,247.5 154.5,247.5 141.5,247.5C 141.5,225.167 141.5,202.833 141.5,180.5 Z"/></g>
<g><path style="opacity:1" fill="#6f3cc6" d="M 190.5,180.5 C 195.5,180.5 200.5,180.5 205.5,180.5C 205.5,198.833 205.5,217.167 205.5,235.5C 213.5,235.5 221.5,235.5 229.5,235.5C 229.5,239.5 229.5,243.5 229.5,247.5C 216.5,247.5 203.5,247.5 190.5,247.5C 190.5,225.167 190.5,202.833 190.5,180.5 Z"/></g>
<g><path style="opacity:1" fill="#7a4dd2" d="M 326.5,180.5 C 343.833,180.5 361.167,180.5 378.5,180.5C 378.5,184.5 378.5,188.5 378.5,192.5C 372.167,192.5 365.833,192.5 359.5,192.5C 359.5,210.833 359.5,229.167 359.5,247.5C 354.833,247.5 350.167,247.5 345.5,247.5C 345.5,229.167 345.5,210.833 345.5,192.5C 339.167,192.5 332.833,192.5 326.5,192.5C 326.5,188.5 326.5,184.5 326.5,180.5 Z"/></g>
<g><path style="opacity:1" fill="#8258d7" d="M 398.5,180.5 C 404.537,180.171 410.537,180.504 416.5,181.5C 424.87,202.935 432.87,224.601 440.5,246.5C 435.167,247.833 429.833,247.833 424.5,246.5C 422.53,242.088 420.863,237.588 419.5,233C 411.5,232.333 403.5,232.333 395.5,233C 393.137,237.59 391.47,242.423 390.5,247.5C 385.125,247.828 379.792,247.495 374.5,246.5C 382.717,224.509 390.717,202.509 398.5,180.5 Z"/></g>
<g><path style="opacity:1" fill="#875fdc" d="M 471.5,179.5 C 479.581,179.315 487.581,179.982 495.5,181.5C 495.827,186.214 495.493,190.88 494.5,195.5C 485.368,191.367 476.368,191.534 467.5,196C 461.284,200.432 458.617,206.432 459.5,214C 459.061,227.729 465.728,234.896 479.5,235.5C 484.965,235.133 490.298,234.133 495.5,232.5C 495.5,236.833 495.5,241.167 495.5,245.5C 485.284,248.637 474.951,249.137 464.5,247C 447.845,239.089 441.011,225.922 444,207.5C 448.003,192.997 457.17,183.664 471.5,179.5 Z"/></g>
<g><path style="opacity:1" fill="#8c65e0" d="M 521.5,180.5 C 521.666,190.506 521.5,200.506 521,210.5C 520.086,209.346 519.253,209.513 518.5,211C 519.333,211.833 520.167,212.667 521,213.5C 521.5,224.828 521.667,236.162 521.5,247.5C 516.833,247.5 512.167,247.5 507.5,247.5C 507.5,225.167 507.5,202.833 507.5,180.5C 512.167,180.5 516.833,180.5 521.5,180.5 Z"/></g>
<g><path style="opacity:1" fill="#8f6ae3" d="M 521.5,180.5 C 522.33,190.659 522.83,200.992 523,211.5C 529.709,201.247 536.543,191.08 543.5,181C 549.196,180.17 554.863,180.337 560.5,181.5C 552.417,191.346 545.083,201.679 538.5,212.5C 546.077,224.086 554.077,235.419 562.5,246.5C 556.528,247.664 550.528,247.83 544.5,247C 536.941,236.438 529.774,225.605 523,214.5C 522.83,225.674 522.33,236.674 521.5,247.5C 521.667,236.162 521.5,224.828 521,213.5C 520.167,212.667 519.333,211.833 518.5,211C 519.253,209.513 520.086,209.346 521,210.5C 521.5,200.506 521.666,190.506 521.5,180.5 Z"/></g>
<g><path style="opacity:1" fill="#cdbfe4" d="M 60.5,192.5 C 53.0182,193.492 45.3516,193.825 37.5,193.5C 37.5,198.833 37.5,204.167 37.5,209.5C 36.5111,204.025 36.1778,198.358 36.5,192.5C 44.5,192.5 52.5,192.5 60.5,192.5 Z"/></g>
<g><path style="opacity:1" fill="#bca7e4" d="M 326.5,180.5 C 326.5,184.5 326.5,188.5 326.5,192.5C 332.833,192.5 339.167,192.5 345.5,192.5C 345.5,210.833 345.5,229.167 345.5,247.5C 344.503,229.674 344.17,211.674 344.5,193.5C 338.167,193.5 331.833,193.5 325.5,193.5C 325.182,188.968 325.515,184.634 326.5,180.5 Z"/></g>
<g><path style="opacity:1" fill="#eae7f1" d="M 406.5,192.5 C 407.649,192.791 408.316,193.624 408.5,195C 410.261,203.784 412.928,212.284 416.5,220.5C 410.537,221.496 404.537,221.829 398.5,221.5C 401.927,212.028 404.593,202.361 406.5,192.5 Z"/></g>
<g><path style="opacity:1" fill="#784ace" d="M 294.5,179.5 C 302.248,179.004 309.748,180.004 317,182.5C 317.828,186.871 317.661,191.205 316.5,195.5C 309.957,191.776 302.957,190.61 295.5,192C 290.202,194.488 289.202,198.155 292.5,203C 299.131,206.327 305.798,209.66 312.5,213C 322.496,222.305 323.162,232.305 314.5,243C 302.21,249.214 289.544,250.048 276.5,245.5C 275.338,240.533 275.171,235.533 276,230.5C 284.742,237.173 294.075,238.173 304,233.5C 304.667,231.167 304.667,228.833 304,226.5C 302.442,224.641 300.609,223.141 298.5,222C 289.069,219.559 281.569,214.392 276,206.5C 272.648,197.937 274.481,190.77 281.5,185C 285.561,182.265 289.894,180.432 294.5,179.5 Z"/></g>
<g><path style="opacity:1" fill="#7140ca" d="M 238.5,216.5 C 246.833,216.5 255.167,216.5 263.5,216.5C 263.5,219.833 263.5,223.167 263.5,226.5C 255.167,226.5 246.833,226.5 238.5,226.5C 238.5,223.167 238.5,219.833 238.5,216.5 Z"/></g>
<g><path style="opacity:1" fill="#c8b8e7" d="M 378.5,180.5 C 379.485,184.634 379.818,188.968 379.5,193.5C 373.167,193.5 366.833,193.5 360.5,193.5C 360.83,211.674 360.497,229.674 359.5,247.5C 359.5,229.167 359.5,210.833 359.5,192.5C 365.833,192.5 372.167,192.5 378.5,192.5C 378.5,188.5 378.5,184.5 378.5,180.5 Z"/></g>
<g><path style="opacity:1" fill="#9471e6" d="M 571.5,233.5 C 579.712,232.226 583.546,235.559 583,243.5C 581.471,246.934 578.804,248.6 575,248.5C 568.192,247.893 565.526,244.227 567,237.5C 568.397,235.93 569.897,234.596 571.5,233.5 Z"/></g>
<g><path style="opacity:1" fill="#fefffe" d="M -0.5,267.5 C 278.167,267.5 556.833,267.5 835.5,267.5C 835.5,270.833 835.5,274.167 835.5,277.5C 556.833,277.5 278.167,277.5 -0.5,277.5C -0.5,274.167 -0.5,270.833 -0.5,267.5 Z"/></g>
</svg>
