<?xml version="1.0" encoding="UTF-8"?>
<!DOCTYPE svg PUBLIC "-//W3C//DTD SVG 1.1//EN" "http://www.w3.org/Graphics/SVG/1.1/DTD/svg11.dtd">
<svg xmlns="http://www.w3.org/2000/svg" version="1.1" width="1200px" height="230px" style="shape-rendering:geometricPrecision; text-rendering:geometricPrecision; image-rendering:optimizeQuality; fill-rule:evenodd; clip-rule:evenodd" xmlns:xlink="http://www.w3.org/1999/xlink">
<g><path style="opacity:1" fill="#f0f0f2" d="M 265.5,-0.5 C 488.167,-0.5 710.833,-0.5 933.5,-0.5C 933.5,76.1667 933.5,152.833 933.5,229.5C 710.833,229.5 488.167,229.5 265.5,229.5C 265.5,152.833 265.5,76.1667 265.5,-0.5 Z"/></g>
<g><path style="opacity:1" fill="#bfa8f4" d="M 297.5,21.5 C 373.501,21.3333 449.501,21.5 525.5,22C 526.833,30.6667 526.833,39.3333 525.5,48C 449.167,48.5 372.834,48.6667 296.5,48.5C 296.196,39.4161 296.529,30.4161 297.5,21.5 Z"/></g>
<g><path style="opacity:1" fill="#f4f2f7" d="M 308.5,30.5 C 311.119,30.2317 313.619,30.565 316,31.5C 317.16,36.1521 315.327,38.1521 310.5,37.5C 310.762,38.9778 310.429,40.3112 309.5,41.5C 308.511,37.8927 308.177,34.226 308.5,30.5 Z"/></g>
<g><path style="opacity:1" fill="#f5f3f8" d="M 318.5,30.5 C 321.119,30.2317 323.619,30.565 326,31.5C 326.624,33.4645 326.124,35.1311 324.5,36.5C 326.333,37.9684 326.666,39.6351 325.5,41.5C 324.396,39.6115 323.063,37.9448 321.5,36.5C 320.833,38.1667 320.167,39.8333 319.5,41.5C 318.511,37.8927 318.177,34.226 318.5,30.5 Z"/></g>
<g><path style="opacity:1" fill="#f4f2f7" d="M 358.5,30.5 C 364.626,29.1212 366.626,31.2879 364.5,37C 364.95,38.2853 365.617,39.452 366.5,40.5C 366.167,40.8333 365.833,41.1667 365.5,41.5C 364.167,40.1667 362.833,38.8333 361.5,37.5C 360.833,38.8333 360.167,40.1667 359.5,41.5C 358.511,37.8927 358.177,34.226 358.5,30.5 Z"/></g>
<g><path style="opacity:1" fill="#f7f7f8" d="M 407.5,30.5 C 408.317,32.9686 408.817,35.6353 409,38.5C 410.333,39.8333 411.667,39.8333 413,38.5C 413.182,35.7737 413.682,33.1071 414.5,30.5C 416.024,34.2702 415.691,37.7702 413.5,41C 411.559,41.7429 409.726,41.5762 408,40.5C 407.502,37.1832 407.335,33.8499 407.5,30.5 Z"/></g>
<g><path style="opacity:1" fill="#f1eef7" d="M 426.5,29.5 C 427.5,29.5 428.5,29.5 429.5,29.5C 429.343,30.8734 429.51,32.2068 430,33.5C 431.113,31.6707 432.613,30.8374 434.5,31C 429.547,33.6887 429.38,36.522 434,39.5C 434.688,40.3317 434.521,40.9984 433.5,41.5C 431.833,40.5 430.5,39.1667 429.5,37.5C 428.833,38.8333 428.167,40.1667 427.5,41.5C 426.509,37.5546 426.176,33.5546 426.5,29.5 Z"/></g>
<g><path style="opacity:1" fill="#f0edf7" d="M 436.5,30.5 C 439.119,30.2317 441.619,30.565 444,31.5C 444.624,33.4645 444.124,35.1311 442.5,36.5C 444.333,37.9684 444.666,39.6351 443.5,41.5C 442.396,39.6115 441.063,37.9448 439.5,36.5C 438.833,38.1667 438.167,39.8333 437.5,41.5C 436.511,37.8927 436.177,34.226 436.5,30.5 Z"/></g>
<g><path style="opacity:1" fill="#f6f7f5" d="M 508.5,28.5 C 509.765,29.5145 510.431,31.0145 510.5,33C 510.167,34.5 509.833,36 509.5,37.5C 508.516,34.5719 508.183,31.5719 508.5,28.5 Z"/></g>
<g><path style="opacity:1" fill="#f6f6f7" d="M 446.5,31.5 C 450.967,30.1381 452.633,30.1381 451.5,31.5C 451.5,34.1667 451.5,36.8333 451.5,39.5C 452.675,39.281 453.675,39.6143 454.5,40.5C 451.833,41.8333 449.167,41.8333 446.5,40.5C 447.325,39.6143 448.325,39.281 449.5,39.5C 449.5,36.8333 449.5,34.1667 449.5,31.5C 448.5,31.5 447.5,31.5 446.5,31.5 Z"/></g>
<g><path style="opacity:1" fill="#c3adf4" d="M 310.5,31.5 C 313.5,31.1667 314.833,32.5 314.5,35.5C 313.167,35.5 311.833,35.5 310.5,35.5C 310.5,34.1667 310.5,32.8333 310.5,31.5 Z"/></g>
<g><path style="opacity:1" fill="#c5b0f4" d="M 320.5,31.5 C 321.5,31.5 322.5,31.5 323.5,31.5C 323.5,32.8333 323.5,34.1667 323.5,35.5C 322.5,35.5 321.5,35.5 320.5,35.5C 320.5,34.1667 320.5,32.8333 320.5,31.5 Z"/></g>
<g><path style="opacity:1" fill="#c1abf2" d="M 360.5,31.5 C 363.861,32.2032 364.194,33.5365 361.5,35.5C 360.571,34.3112 360.238,32.9778 360.5,31.5 Z"/></g>
<g><path style="opacity:1" fill="#f5f4f7" d="M 398.5,30.5 C 400.792,30.2436 402.959,30.5769 405,31.5C 406.004,34.9926 405.504,38.1592 403.5,41C 397.481,41.5379 395.314,38.7045 397,32.5C 397.717,31.9558 398.217,31.2891 398.5,30.5 Z"/></g>
<g><path style="opacity:1" fill="#c0a8f3" d="M 400.5,31.5 C 402.89,31.6848 403.89,33.0182 403.5,35.5C 403.631,39.1657 402.131,40.1657 399,38.5C 398.167,35.829 398.667,33.4957 400.5,31.5 Z"/></g>
<g><path style="opacity:1" fill="#f3f1f7" d="M 330.5,30.5 C 331.833,30.5 333.167,30.5 334.5,30.5C 334.784,33.8524 335.95,36.8524 338,39.5C 339.955,37.0888 341.789,34.5888 343.5,32C 341.833,31.6667 340.167,31.3333 338.5,31C 341.167,30.3333 343.833,30.3333 346.5,31C 344.5,33.6667 342.5,36.3333 340.5,39C 347.942,39.9961 348.108,40.8294 341,41.5C 337.762,41.6076 334.762,40.941 332,39.5C 330.635,39.8443 329.468,40.5109 328.5,41.5C 328.167,41.1667 327.833,40.8333 327.5,40.5C 328.909,37.2732 329.909,33.9399 330.5,30.5 Z"/></g>
<g><path style="opacity:1" fill="#f3f1f7" d="M 465.5,31.5 C 469.311,30.3547 473.311,30.1881 477.5,31C 478.46,32.4194 479.293,33.9194 480,35.5C 480.687,33.4453 481.854,31.7786 483.5,30.5C 484.288,32.3289 483.788,33.9956 482,35.5C 481.505,37.4727 481.338,39.4727 481.5,41.5C 480.5,41.5 479.5,41.5 478.5,41.5C 478.938,38.1066 478.105,35.1066 476,32.5C 474.644,31.6198 473.144,31.2865 471.5,31.5C 470.833,44.8333 470.167,44.8333 469.5,31.5C 468.167,31.5 466.833,31.5 465.5,31.5 Z"/></g>
<g><path style="opacity:1" fill="#c3aef3" d="M 331.5,32.5 C 332.931,33.7804 333.598,35.4471 333.5,37.5C 332.325,37.719 331.325,37.3857 330.5,36.5C 331.246,35.2638 331.579,33.9305 331.5,32.5 Z"/></g>
<g><path style="opacity:1" fill="#f5f4f7" d="M 388.5,30.5 C 390.604,30.2011 392.604,30.5344 394.5,31.5C 392.744,31.3595 391.078,31.8595 389.5,33C 391.249,34.2915 393.082,35.4582 395,36.5C 395.711,38.3668 395.211,39.8668 393.5,41C 391.421,41.8077 389.421,41.641 387.5,40.5C 389.624,39.8506 391.624,39.0173 393.5,38C 391.552,37.0168 389.718,35.8502 388,34.5C 387.421,33.0715 387.588,31.7382 388.5,30.5 Z"/></g>
<g><path style="opacity:1" fill="#f0edf6" d="M 501.5,29.5 C 502.5,29.5 503.5,29.5 504.5,29.5C 504.5,33.5 504.5,37.5 504.5,41.5C 503.178,41.67 502.011,41.3366 501,40.5C 498.419,32.4145 496.919,32.7479 496.5,41.5C 495.511,37.8927 495.177,34.226 495.5,30.5C 496.552,30.3505 497.552,30.5172 498.5,31C 500.993,36.9733 501.993,36.4733 501.5,29.5 Z"/></g>
<g><path style="opacity:1" fill="#f5f4f7" d="M 457.5,30.5 C 459.604,30.2011 461.604,30.5344 463.5,31.5C 461.86,31.1525 460.193,31.6525 458.5,33C 460.249,34.2915 462.082,35.4582 464,36.5C 464.513,39.8266 463.013,41.4933 459.5,41.5C 458.5,41.1667 457.5,40.8333 456.5,40.5C 458.045,39.5481 459.712,39.2148 461.5,39.5C 461.5,38.5 461.5,37.5 461.5,36.5C 457.262,36.2804 455.928,34.2804 457.5,30.5 Z"/></g>
<g><path style="opacity:1" fill="#f1eff6" d="M 487.5,30.5 C 489.144,30.2865 490.644,30.6198 492,31.5C 493.515,34.8337 494.015,38.167 493.5,41.5C 490.851,38.9608 488.184,38.9608 485.5,41.5C 485.167,41.1667 484.833,40.8333 484.5,40.5C 486.095,37.3199 487.095,33.9865 487.5,30.5 Z"/></g>
<g><path style="opacity:1" fill="#c1abf3" d="M 489.5,32.5 C 490.339,33.6412 491.006,34.9745 491.5,36.5C 490.675,37.3857 489.675,37.719 488.5,37.5C 488.629,35.7839 488.962,34.1172 489.5,32.5 Z"/></g>
<g><path style="opacity:1" fill="#f4f4f6" d="M 348.5,30.5 C 350.857,30.3367 353.19,30.5034 355.5,31C 353.866,31.4935 352.199,31.6602 350.5,31.5C 350.5,32.5 350.5,33.5 350.5,34.5C 357.167,35.1667 357.167,35.8333 350.5,36.5C 350.5,37.5 350.5,38.5 350.5,39.5C 352.288,39.2148 353.955,39.5481 355.5,40.5C 353.257,41.4742 350.924,41.8076 348.5,41.5C 348.5,37.8333 348.5,34.1667 348.5,30.5 Z"/></g>
<g><path style="opacity:1" fill="#f1f0f6" d="M 370.5,38.5 C 371.5,38.5 372.5,38.5 373.5,38.5C 373.938,42.734 372.272,44.4006 368.5,43.5C 370.005,42.1585 370.672,40.4918 370.5,38.5 Z"/></g>
<g><path style="opacity:1" fill="#6530bf" d="M 354.5,79.5 C 364.167,79.5 373.833,79.5 383.5,79.5C 383.5,82.5 383.5,85.5 383.5,88.5C 377.5,88.5 371.5,88.5 365.5,88.5C 365.5,92.1667 365.5,95.8333 365.5,99.5C 370.833,99.5 376.167,99.5 381.5,99.5C 381.5,102.5 381.5,105.5 381.5,108.5C 376.167,108.5 370.833,108.5 365.5,108.5C 365.5,112.5 365.5,116.5 365.5,120.5C 371.833,120.5 378.167,120.5 384.5,120.5C 384.5,123.5 384.5,126.5 384.5,129.5C 374.5,129.5 364.5,129.5 354.5,129.5C 354.5,112.833 354.5,96.1667 354.5,79.5 Z"/></g>
<g><path style="opacity:1" fill="#6c38c3" d="M 421.5,80.5 C 421.81,83.7131 421.477,86.7131 420.5,89.5C 415.629,87.7922 410.629,87.2922 405.5,88C 400.632,90.4772 400.299,93.4772 404.5,97C 409.198,99.3489 413.864,101.682 418.5,104C 425.037,109.475 426.204,115.975 422,123.5C 418.444,127.523 413.944,129.689 408.5,130C 402.414,130.843 396.58,130.009 391,127.5C 390.333,123.833 390.333,120.167 391,116.5C 396.796,121.563 403.296,122.73 410.5,120C 413.167,117.333 413.167,114.667 410.5,112C 404.221,109.858 398.554,106.691 393.5,102.5C 388.489,94.0542 389.822,86.8875 397.5,81C 405.479,77.8932 413.479,77.7265 421.5,80.5 Z"/></g>
<g><path style="opacity:1" fill="#703fc7" d="M 432.5,79.5 C 442.167,79.5 451.833,79.5 461.5,79.5C 461.5,82.5 461.5,85.5 461.5,88.5C 455.5,88.5 449.5,88.5 443.5,88.5C 443.5,92.1667 443.5,95.8333 443.5,99.5C 449.167,99.5 454.833,99.5 460.5,99.5C 460.5,102.5 460.5,105.5 460.5,108.5C 454.833,108.5 449.167,108.5 443.5,108.5C 443.5,112.5 443.5,116.5 443.5,120.5C 449.833,120.5 456.167,120.5 462.5,120.5C 462.5,123.5 462.5,126.5 462.5,129.5C 452.5,129.5 442.5,129.5 432.5,129.5C 432.5,112.833 432.5,96.1667 432.5,79.5 Z"/></g>
<g><path style="opacity:1" fill="#7748cd" d="M 503.5,110.5 C 503.987,111.473 504.487,112.473 505,113.5C 505.5,102.172 505.667,90.8382 505.5,79.5C 508.833,79.5 512.167,79.5 515.5,79.5C 515.5,96.1667 515.5,112.833 515.5,129.5C 511.563,129.793 507.73,129.46 504,128.5C 496.823,117.472 489.656,106.472 482.5,95.5C 482.631,94.6236 482.298,93.9569 481.5,93.5C 480.501,105.482 480.168,117.482 480.5,129.5C 477.167,129.5 473.833,129.5 470.5,129.5C 470.5,112.833 470.5,96.1667 470.5,79.5C 474.884,79.1744 479.217,79.5078 483.5,80.5C 489.834,90.8127 496.5,100.813 503.5,110.5 Z"/></g>
<g><path style="opacity:1" fill="#d2c5ea" d="M 505.5,79.5 C 505.667,90.8382 505.5,102.172 505,113.5C 504.487,112.473 503.987,111.473 503.5,110.5C 504.167,100.167 504.833,89.8333 505.5,79.5 Z"/></g>
<g><path style="opacity:1" fill="#7d50d3" d="M 522.5,80.5 C 526.566,79.178 530.733,79.178 535,80.5C 537.798,92.8762 541.465,104.876 546,116.5C 550.286,104.691 553.952,92.6915 557,80.5C 560.73,79.5399 564.563,79.2065 568.5,79.5C 562.573,95.949 557.24,112.616 552.5,129.5C 548.116,129.826 543.783,129.492 539.5,128.5C 534.216,112.311 528.549,96.3106 522.5,80.5 Z"/></g>
<g><path style="opacity:1" fill="#8358d8" d="M 592.5,78.5 C 605.954,77.4668 615.12,83.1335 620,95.5C 622.916,107.697 619.749,117.864 610.5,126C 593.651,134.503 581.151,130.336 573,113.5C 569.209,95.7229 575.709,84.0562 592.5,78.5 Z"/></g>
<g><path style="opacity:1" fill="#875edd" d="M 640.5,79.5 C 640.5,93.1667 640.5,106.833 640.5,120.5C 646.5,120.5 652.5,120.5 658.5,120.5C 658.5,123.5 658.5,126.5 658.5,129.5C 648.833,129.5 639.167,129.5 629.5,129.5C 629.5,112.833 629.5,96.1667 629.5,79.5C 633.167,79.5 636.833,79.5 640.5,79.5 Z"/></g>
<g><path style="opacity:1" fill="#dfd8f1" d="M 640.5,79.5 C 641.496,92.6562 641.829,105.99 641.5,119.5C 647.5,119.5 653.5,119.5 659.5,119.5C 659.813,123.042 659.479,126.375 658.5,129.5C 658.5,126.5 658.5,123.5 658.5,120.5C 652.5,120.5 646.5,120.5 640.5,120.5C 640.5,106.833 640.5,93.1667 640.5,79.5 Z"/></g>
<g><path style="opacity:1" fill="#8f68e1" d="M 657.5,79.5 C 661.437,79.2065 665.27,79.5399 669,80.5C 672.376,92.9189 676.043,105.252 680,117.5C 683.932,105.203 687.766,92.8692 691.5,80.5C 695.107,79.5108 698.774,79.1774 702.5,79.5C 702.66,81.1992 702.494,82.8659 702,84.5C 695.925,99.2253 690.759,114.225 686.5,129.5C 682.116,129.826 677.783,129.492 673.5,128.5C 667.706,112.324 662.372,95.9908 657.5,79.5 Z"/></g>
<g><path style="opacity:1" fill="#936ee6" d="M 709.5,79.5 C 719.167,79.5 728.833,79.5 738.5,79.5C 738.5,82.5 738.5,85.5 738.5,88.5C 732.5,88.5 726.5,88.5 720.5,88.5C 720.5,92.1667 720.5,95.8333 720.5,99.5C 726.167,99.5 731.833,99.5 737.5,99.5C 737.5,102.5 737.5,105.5 737.5,108.5C 731.833,108.5 726.167,108.5 720.5,108.5C 720.5,112.5 720.5,116.5 720.5,120.5C 726.833,120.5 733.167,120.5 739.5,120.5C 739.5,123.5 739.5,126.5 739.5,129.5C 729.5,129.5 719.5,129.5 709.5,129.5C 709.5,112.833 709.5,96.1667 709.5,79.5 Z"/></g>
<g><path style="opacity:1" fill="#9a78ec" d="M 747.5,79.5 C 756.506,79.3336 765.506,79.5002 774.5,80C 786.378,83.3734 792.378,91.2067 792.5,103.5C 792.212,114.956 786.878,123.123 776.5,128C 766.874,129.244 757.208,129.744 747.5,129.5C 747.5,112.833 747.5,96.1667 747.5,79.5 Z"/></g>
<g><path style="opacity:1" fill="#a080f1" d="M 816.5,78.5 C 838.154,77.6527 847.987,87.986 846,109.5C 842.341,125.088 832.508,131.921 816.5,130C 807,127.167 800.833,121 798,111.5C 795.403,95.3436 801.569,84.3436 816.5,78.5 Z"/></g>
<g><path style="opacity:1" fill="#a588f6" d="M 871.5,110.5 C 869.735,109.539 867.735,109.205 865.5,109.5C 865.5,116.167 865.5,122.833 865.5,129.5C 862.167,129.5 858.833,129.5 855.5,129.5C 855.5,112.833 855.5,96.1667 855.5,79.5C 863.174,79.3336 870.841,79.5003 878.5,80C 890.71,83.0104 893.877,90.1771 888,101.5C 885.766,103.7 883.266,105.533 880.5,107C 882.772,109.027 884.939,111.194 887,113.5C 890.167,118.5 893.333,123.5 896.5,128.5C 892.167,129.833 887.833,129.833 883.5,128.5C 880.469,121.746 876.469,115.746 871.5,110.5 Z"/></g>
<g><path style="opacity:1" fill="#612abb" d="M 301.5,79.5 C 309.507,79.3336 317.507,79.5003 325.5,80C 338.746,81.742 345.413,89.242 345.5,102.5C 345.716,117.112 338.716,125.945 324.5,129C 316.841,129.5 309.174,129.666 301.5,129.5C 301.5,112.833 301.5,96.1667 301.5,79.5 Z"/></g>
<g><path style="opacity:1" fill="#9f7edb" d="M 421.5,80.5 C 422.806,83.6868 422.806,87.0202 421.5,90.5C 420.893,90.3764 420.56,90.0431 420.5,89.5C 421.477,86.7131 421.81,83.7131 421.5,80.5 Z"/></g>
<g><path style="opacity:1" fill="#eeecf2" d="M 591.5,88.5 C 600.464,86.5605 606.297,89.8939 609,98.5C 610.301,104.922 609.301,110.922 606,116.5C 595.689,123.544 588.356,121.211 584,109.5C 581.883,100.673 584.383,93.673 591.5,88.5 Z"/></g>
<g><path style="opacity:1" fill="#efeff3" d="M 817.5,88.5 C 825.059,87.28 830.559,89.9467 834,96.5C 834.804,102.569 834.471,108.569 833,114.5C 826.374,122.119 819.374,122.452 812,115.5C 808.769,108.113 808.769,100.78 812,93.5C 813.73,91.5981 815.563,89.9314 817.5,88.5 Z"/></g>
<g><path style="opacity:1" fill="#ccbcef" d="M 874.5,88.5 C 871.833,88.5 869.167,88.5 866.5,88.5C 866.5,92.8333 866.5,97.1667 866.5,101.5C 865.514,97.03 865.181,92.3633 865.5,87.5C 868.713,87.19 871.713,87.5233 874.5,88.5 Z"/></g>
<g><path style="opacity:1" fill="#efeef3" d="M 874.5,88.5 C 879.572,90.2852 880.739,93.6185 878,98.5C 874.623,101.013 870.79,102.013 866.5,101.5C 866.5,97.1667 866.5,92.8333 866.5,88.5C 869.167,88.5 871.833,88.5 874.5,88.5 Z"/></g>
<g><path style="opacity:1" fill="#d2c6eb" d="M 322.5,89.5 C 319.5,89.5 316.5,89.5 313.5,89.5C 313.5,99.5 313.5,109.5 313.5,119.5C 316.5,119.5 319.5,119.5 322.5,119.5C 319.375,120.479 316.042,120.813 312.5,120.5C 312.5,109.833 312.5,99.1667 312.5,88.5C 316.042,88.1872 319.375,88.5206 322.5,89.5 Z"/></g>
<g><path style="opacity:1" fill="#edecf2" d="M 758.5,88.5 C 775.029,86.8605 782.195,94.1939 780,110.5C 775.271,118.703 768.105,122.036 758.5,120.5C 758.5,109.833 758.5,99.1667 758.5,88.5 Z"/></g>
<g><path style="opacity:1" fill="#efeff2" d="M 322.5,89.5 C 330.343,90.9639 334.343,95.7972 334.5,104C 334.192,112.15 330.192,117.317 322.5,119.5C 319.5,119.5 316.5,119.5 313.5,119.5C 313.5,109.5 313.5,99.5 313.5,89.5C 316.5,89.5 319.5,89.5 322.5,89.5 Z"/></g>
<g><path style="opacity:1" fill="#8f6ad3" d="M 482.5,95.5 C 481.833,106.833 481.167,118.167 480.5,129.5C 480.168,117.482 480.501,105.482 481.5,93.5C 482.298,93.9569 482.631,94.6236 482.5,95.5 Z"/></g>
<g><path style="opacity:1" fill="#c7b5ef" d="M 871.5,110.5 C 869.833,110.5 868.167,110.5 866.5,110.5C 866.823,117.022 866.49,123.355 865.5,129.5C 865.5,122.833 865.5,116.167 865.5,109.5C 867.735,109.205 869.735,109.539 871.5,110.5 Z"/></g>
<g><path style="opacity:1" fill="#5f27b9" d="M 301.5,151.5 C 310.833,151.5 320.167,151.5 329.5,151.5C 329.5,154.167 329.5,156.833 329.5,159.5C 323.642,159.178 317.975,159.511 312.5,160.5C 312.5,164.5 312.5,168.5 312.5,172.5C 317.833,172.5 323.167,172.5 328.5,172.5C 328.5,175.5 328.5,178.5 328.5,181.5C 323.167,181.5 317.833,181.5 312.5,181.5C 312.5,188.167 312.5,194.833 312.5,201.5C 308.833,201.5 305.167,201.5 301.5,201.5C 301.5,184.833 301.5,168.167 301.5,151.5 Z"/></g>
<g><path style="opacity:1" fill="#794bce" d="M 502.5,150.5 C 509.158,150.105 515.658,150.772 522,152.5C 522.824,155.882 522.657,159.216 521.5,162.5C 516.188,159.726 510.521,158.892 504.5,160C 501.689,163.294 502.022,166.294 505.5,169C 510.167,171.333 514.833,173.667 519.5,176C 525.185,181.803 526.019,188.303 522,195.5C 519.374,198.231 516.207,200.064 512.5,201C 505.355,202.002 498.355,201.502 491.5,199.5C 490.167,195.833 490.167,192.167 491.5,188.5C 497.898,193.006 504.732,193.673 512,190.5C 512.667,188.833 512.667,187.167 512,185.5C 506.758,181.934 501.258,178.767 495.5,176C 487.084,164.404 489.417,155.904 502.5,150.5 Z"/></g>
<g><path style="opacity:1" fill="#b198e4" d="M 664.5,151.5 C 667.962,150.518 671.629,150.185 675.5,150.5C 675.175,158.352 675.508,166.018 676.5,173.5C 676.44,174.043 676.107,174.376 675.5,174.5C 674.503,166.862 674.169,159.196 674.5,151.5C 671.167,151.5 667.833,151.5 664.5,151.5 Z"/></g>
<g><path style="opacity:1" fill="#885ecc" d="M 338.5,151.5 C 341.962,150.518 345.629,150.185 349.5,150.5C 349.5,161.5 349.5,172.5 349.5,183.5C 348.506,173.013 348.172,162.346 348.5,151.5C 345.167,151.5 341.833,151.5 338.5,151.5 Z"/></g>
<g><path style="opacity:1" fill="#6934c2" d="M 401.5,151.5 C 401.5,165.167 401.5,178.833 401.5,192.5C 407.5,192.5 413.5,192.5 419.5,192.5C 419.5,195.167 419.5,197.833 419.5,200.5C 409.833,200.5 400.167,200.5 390.5,200.5C 390.5,184.167 390.5,167.833 390.5,151.5C 394.167,151.5 397.833,151.5 401.5,151.5 Z"/></g>
<g><path style="opacity:1" fill="#ccbee8" d="M 401.5,151.5 C 402.496,164.656 402.829,177.99 402.5,191.5C 408.69,191.177 414.69,191.51 420.5,192.5C 420.167,192.5 419.833,192.5 419.5,192.5C 413.5,192.5 407.5,192.5 401.5,192.5C 401.5,178.833 401.5,165.167 401.5,151.5 Z"/></g>
<g><path style="opacity:1" fill="#6d3bc5" d="M 438.5,191.5 C 444.31,192.49 450.31,192.823 456.5,192.5C 456.5,195.167 456.5,197.833 456.5,200.5C 446.833,200.5 437.167,200.5 427.5,200.5C 427.5,184.167 427.5,167.833 427.5,151.5C 431.167,151.5 434.833,151.5 438.5,151.5C 438.5,164.833 438.5,178.167 438.5,191.5 Z"/></g>
<g><path style="opacity:1" fill="#7a4cd2" d="M 528.5,152.5 C 528.5,152.167 528.5,151.833 528.5,151.5C 541.5,151.5 554.5,151.5 567.5,151.5C 567.5,154.167 567.5,156.833 567.5,159.5C 562.968,159.182 558.634,159.515 554.5,160.5C 553.504,173.656 553.171,186.99 553.5,200.5C 550.167,200.5 546.833,200.5 543.5,200.5C 543.829,186.99 543.496,173.656 542.5,160.5C 538.366,159.515 534.032,159.182 529.5,159.5C 529.802,156.941 529.468,154.607 528.5,152.5 Z"/></g>
<g><path style="opacity:1" fill="#8459d8" d="M 577.5,199.5 C 573.399,200.791 569.399,200.791 565.5,199.5C 571.307,184.23 576.807,168.897 582,153.5C 584.213,152.24 586.713,151.574 589.5,151.5C 592.089,151.527 594.589,151.861 597,152.5C 602.525,168.87 608.025,185.204 613.5,201.5C 609.5,201.5 605.5,201.5 601.5,201.5C 601.042,197.834 600.042,194.334 598.5,191C 592.175,190.5 585.842,190.334 579.5,190.5C 579.127,193.574 578.461,196.574 577.5,199.5 Z"/></g>
<g><path style="opacity:1" fill="#8d66e1" d="M 664.5,151.5 C 667.833,151.5 671.167,151.5 674.5,151.5C 674.169,159.196 674.503,166.862 675.5,174.5C 676.107,174.376 676.44,174.043 676.5,173.5C 681.032,166.276 685.698,159.11 690.5,152C 694.833,151.333 699.167,151.333 703.5,152C 697.833,159.667 692.167,167.333 686.5,175C 692.955,183.411 699.288,191.911 705.5,200.5C 700.869,201.662 696.202,201.828 691.5,201C 686.354,193.195 681.354,185.362 676.5,177.5C 676.44,176.957 676.107,176.624 675.5,176.5C 674.502,184.472 674.169,192.472 674.5,200.5C 671.167,200.5 667.833,200.5 664.5,200.5C 664.5,184.167 664.5,167.833 664.5,151.5 Z"/></g>
<g><path style="opacity:1" fill="#652fbe" d="M 338.5,151.5 C 341.833,151.5 345.167,151.5 348.5,151.5C 348.172,162.346 348.506,173.013 349.5,183.5C 352.31,192.878 357.81,194.878 366,189.5C 366.667,188.167 367.333,186.833 368,185.5C 368.5,174.172 368.667,162.838 368.5,151.5C 372.167,151.5 375.833,151.5 379.5,151.5C 379.922,164.561 379.422,177.561 378,190.5C 374.003,198.42 367.503,202.086 358.5,201.5C 350.139,202.236 343.972,198.902 340,191.5C 338.575,178.227 338.075,164.894 338.5,151.5 Z"/></g>
<g><path style="opacity:1" fill="#9a79d7" d="M 301.5,151.5 C 310.986,150.506 320.652,150.173 330.5,150.5C 330.5,153.833 330.5,157.167 330.5,160.5C 324.5,160.5 318.5,160.5 312.5,160.5C 317.975,159.511 323.642,159.178 329.5,159.5C 329.5,156.833 329.5,154.167 329.5,151.5C 320.167,151.5 310.833,151.5 301.5,151.5 Z"/></g>
<g><path style="opacity:1" fill="#9a78d9" d="M 528.5,152.5 C 529.468,154.607 529.802,156.941 529.5,159.5C 534.032,159.182 538.366,159.515 542.5,160.5C 537.833,160.5 533.167,160.5 528.5,160.5C 528.5,157.833 528.5,155.167 528.5,152.5 Z"/></g>
<g><path style="opacity:1" fill="#ae93e0" d="M 528.5,151.5 C 541.656,150.504 554.99,150.171 568.5,150.5C 568.5,153.833 568.5,157.167 568.5,160.5C 563.833,160.5 559.167,160.5 554.5,160.5C 558.634,159.515 562.968,159.182 567.5,159.5C 567.5,156.833 567.5,154.167 567.5,151.5C 554.5,151.5 541.5,151.5 528.5,151.5 Z"/></g>
<g><path style="opacity:1" fill="#ab8fe0" d="M 542.5,160.5 C 543.496,173.656 543.829,186.99 543.5,200.5C 546.833,200.5 550.167,200.5 553.5,200.5C 553.171,186.99 553.504,173.656 554.5,160.5C 554.5,174.167 554.5,187.833 554.5,201.5C 550.5,201.5 546.5,201.5 542.5,201.5C 542.5,187.833 542.5,174.167 542.5,160.5 Z"/></g>
<g><path style="opacity:1" fill="#eae7f1" d="M 588.5,160.5 C 591.768,166.97 594.101,173.97 595.5,181.5C 591.116,181.826 586.783,181.492 582.5,180.5C 585.518,174.115 587.518,167.449 588.5,160.5 Z"/></g>
<g><path style="opacity:1" fill="#885fdc" d="M 635.5,150.5 C 641.88,150.393 648.213,150.893 654.5,152C 655.791,155.455 655.791,158.955 654.5,162.5C 634.947,156.225 626.447,163.225 629,183.5C 635.577,193.087 644.077,195.087 654.5,189.5C 655.487,192.768 655.82,196.102 655.5,199.5C 647.958,201.424 640.291,201.924 632.5,201C 621.639,196.787 616.306,188.787 616.5,177C 616.848,163.782 623.181,154.949 635.5,150.5 Z"/></g>
<g><path style="opacity:1" fill="#ab8fe1" d="M 676.5,177.5 C 675.508,185.316 675.174,193.316 675.5,201.5C 671.629,201.815 667.962,201.482 664.5,200.5C 667.833,200.5 671.167,200.5 674.5,200.5C 674.169,192.472 674.502,184.472 675.5,176.5C 676.107,176.624 676.44,176.957 676.5,177.5 Z"/></g>
<g><path style="opacity:1" fill="#7a4ccd" d="M 463.5,177.5 C 469.509,177.334 475.509,177.501 481.5,178C 482.435,180.381 482.768,182.881 482.5,185.5C 476.167,185.5 469.833,185.5 463.5,185.5C 463.5,182.833 463.5,180.167 463.5,177.5 Z"/></g>
<g><path style="opacity:1" fill="#cfc1e9" d="M 328.5,181.5 C 323.695,182.487 318.695,182.821 313.5,182.5C 313.823,189.022 313.49,195.355 312.5,201.5C 312.5,194.833 312.5,188.167 312.5,181.5C 317.833,181.5 323.167,181.5 328.5,181.5 Z"/></g>
<g><path style="opacity:1" fill="#b49be1" d="M 438.5,191.5 C 444.833,191.5 451.167,191.5 457.5,191.5C 457.5,194.833 457.5,198.167 457.5,201.5C 447.319,201.827 437.319,201.494 427.5,200.5C 437.319,201.494 447.319,201.827 457.5,201.5C 457.5,198.167 457.5,194.833 457.5,191.5C 451.167,191.5 444.833,191.5 438.5,191.5 Z"/></g>
<g><path style="opacity:1" fill="#936fe5" d="M 711.5,190.5 C 719.523,190.161 721.856,193.495 718.5,200.5C 708.193,202.538 705.859,199.204 711.5,190.5 Z"/></g>
<g><path style="opacity:1" fill="#9a78d9" d="M 419.5,192.5 C 419.833,192.5 420.167,192.5 420.5,192.5C 420.5,195.5 420.5,198.5 420.5,201.5C 410.319,201.827 400.319,201.494 390.5,200.5C 400.167,200.5 409.833,200.5 419.5,200.5C 419.5,197.833 419.5,195.167 419.5,192.5 Z"/></g>
<g><path style="opacity:1" fill="#af95e3" d="M 565.5,199.5 C 569.399,200.791 573.399,200.791 577.5,199.5C 575.777,200.8 573.61,201.467 571,201.5C 568.833,201.167 566.667,200.833 564.5,200.5C 564.624,199.893 564.957,199.56 565.5,199.5 Z"/></g>
</svg>
