<?xml version="1.0" encoding="UTF-8"?>
<!DOCTYPE svg PUBLIC "-//W3C//DTD SVG 1.1//EN" "http://www.w3.org/Graphics/SVG/1.1/DTD/svg11.dtd">
<svg xmlns="http://www.w3.org/2000/svg" version="1.1" width="607px" height="265px" style="shape-rendering:geometricPrecision; text-rendering:geometricPrecision; image-rendering:optimizeQuality; fill-rule:evenodd; clip-rule:evenodd" xmlns:xlink="http://www.w3.org/1999/xlink">
<g><path style="opacity:1" fill="#f0f0f2" d="M -0.5,-0.5 C 201.833,-0.5 404.167,-0.5 606.5,-0.5C 606.5,87.8333 606.5,176.167 606.5,264.5C 404.167,264.5 201.833,264.5 -0.5,264.5C -0.5,176.167 -0.5,87.8333 -0.5,-0.5 Z"/></g>
<g><path style="opacity:1" fill="#bea6f4" d="M 15.5,8.5 C 117.167,8.33334 218.834,8.5 320.5,9C 321,9.5 321.5,10 322,10.5C 322.667,21.1667 322.667,31.8333 322,42.5C 321.5,43 321,43.5 320.5,44C 218.833,44.6667 117.167,44.6667 15.5,44C 15,43.5 14.5,43 14,42.5C 13.3333,31.8333 13.3333,21.1667 14,10.5C 14.7172,9.9558 15.2172,9.28913 15.5,8.5 Z"/></g>
<g><path style="opacity:1" fill="#fcfafe" d="M 298.5,17.5 C 299.794,19.0478 300.461,21.0478 300.5,23.5C 300.167,25.5 299.833,27.5 299.5,29.5C 298.509,25.5546 298.176,21.5546 298.5,17.5 Z"/></g>
<g><path style="opacity:1" fill="#f8f5fd" d="M 30.5,19.5 C 34.2568,19.0708 37.7568,19.7375 41,21.5C 41.8259,27.1764 39.3259,29.843 33.5,29.5C 33.5,31.1667 33.5,32.8333 33.5,34.5C 32.5,34.5 31.5,34.5 30.5,34.5C 30.5,29.5 30.5,24.5 30.5,19.5 Z"/></g>
<g><path style="opacity:1" fill="#f8f6fe" d="M 83.5,19.5 C 86.8984,19.1796 90.2317,19.513 93.5,20.5C 91.2573,21.4742 88.924,21.8076 86.5,21.5C 86.5,22.8333 86.5,24.1667 86.5,25.5C 95.8333,26.1667 95.8333,26.8333 86.5,27.5C 86.5,29.1667 86.5,30.8333 86.5,32.5C 88.924,32.1924 91.2573,32.5258 93.5,33.5C 90.2317,34.487 86.8984,34.8204 83.5,34.5C 83.5,29.5 83.5,24.5 83.5,19.5 Z"/></g>
<g><path style="opacity:1" fill="#f7f4fd" d="M 96.5,19.5 C 100.007,18.9935 103.174,19.6602 106,21.5C 107.14,24.5282 106.306,26.6949 103.5,28C 105.414,29.4133 106.747,31.2466 107.5,33.5C 106.635,34.5827 105.635,34.7494 104.5,34C 101.396,26.7424 99.7298,26.9091 99.5,34.5C 98.5,34.5 97.5,34.5 96.5,34.5C 96.5,29.5 96.5,24.5 96.5,19.5 Z"/></g>
<g><path style="opacity:1" fill="#f7f4fd" d="M 137.5,19.5 C 139.857,19.3367 142.19,19.5034 144.5,20C 144.957,20.414 145.291,20.914 145.5,21.5C 144.078,22.5472 142.578,22.5472 141,21.5C 139.72,21.6135 138.887,22.2801 138.5,23.5C 140.988,25.0693 143.488,26.736 146,28.5C 146.825,30.7008 146.325,32.5341 144.5,34C 141.833,34.6667 139.167,34.6667 136.5,34C 136.043,33.586 135.709,33.086 135.5,32.5C 145.95,32.1811 146.117,29.8478 136,25.5C 135.252,23.1599 135.752,21.1599 137.5,19.5 Z"/></g>
<g><path style="opacity:1" fill="#f5f2fd" d="M 151.5,19.5 C 159.819,19.3442 162.652,23.3442 160,31.5C 156.287,35.4875 152.62,35.4875 149,31.5C 147.773,26.938 148.607,22.938 151.5,19.5 Z"/></g>
<g><path style="opacity:1" fill="#f6f2fd" d="M 161.5,19.5 C 162.5,19.5 163.5,19.5 164.5,19.5C 164.334,23.5138 164.501,27.5138 165,31.5C 166.458,32.7468 167.958,32.7468 169.5,31.5C 170.491,27.5546 170.824,23.5546 170.5,19.5C 171.5,19.5 172.5,19.5 173.5,19.5C 173.666,23.5138 173.499,27.5138 173,31.5C 169.333,35.5 165.667,35.5 162,31.5C 161.501,27.5138 161.334,23.5138 161.5,19.5 Z"/></g>
<g><path style="opacity:1" fill="#f8f6fe" d="M 202.5,19.5 C 205.93,19.1065 209.096,19.7732 212,21.5C 212.92,24.3083 212.087,26.4749 209.5,28C 211.081,29.828 212.415,31.828 213.5,34C 212.056,34.7805 210.723,34.6139 209.5,33.5C 206.323,26.5808 204.323,26.9142 203.5,34.5C 202.506,29.544 202.173,24.544 202.5,19.5 Z"/></g>
<g><path style="opacity:1" fill="#f8f6fe" d="M 215.5,19.5 C 218.898,19.1796 222.232,19.513 225.5,20.5C 224.311,21.4287 222.978,21.762 221.5,21.5C 221.5,25.1667 221.5,28.8333 221.5,32.5C 222.978,32.238 224.311,32.5713 225.5,33.5C 222.167,34.8333 218.833,34.8333 215.5,33.5C 216.325,32.6143 217.325,32.281 218.5,32.5C 218.5,28.8333 218.5,25.1667 218.5,21.5C 216.821,21.7148 215.821,21.0481 215.5,19.5 Z"/></g>
<g><path style="opacity:1" fill="#f6f2fd" d="M 230.5,19.5 C 233.119,19.2317 235.619,19.565 238,20.5C 238.591,21.4835 238.257,22.1501 237,22.5C 234.729,20.8753 232.896,21.2086 231.5,23.5C 233.457,25.4848 235.79,26.9848 238.5,28C 240.14,30.7758 239.473,32.7758 236.5,34C 233.571,34.7772 230.737,34.6105 228,33.5C 227.312,32.6683 227.479,32.0016 228.5,31.5C 230.432,32.5202 232.432,32.6869 234.5,32C 235.337,30.9887 235.67,29.8221 235.5,28.5C 228.884,27.9334 227.218,24.9334 230.5,19.5 Z"/></g>
<g><path style="opacity:1" fill="#f6f3fd" d="M 240.5,19.5 C 245.844,19.334 251.177,19.5006 256.5,20C 257.794,22.087 258.961,24.2537 260,26.5C 261.039,24.2537 262.206,22.087 263.5,20C 264.635,19.2506 265.635,19.4173 266.5,20.5C 263.126,24.5763 261.46,29.243 261.5,34.5C 260.5,34.5 259.5,34.5 258.5,34.5C 258.797,30.0888 257.631,26.0888 255,22.5C 252.959,21.5769 250.792,21.2436 248.5,21.5C 248.5,25.8333 248.5,30.1667 248.5,34.5C 247.5,34.5 246.5,34.5 245.5,34.5C 245.5,30.1667 245.5,25.8333 245.5,21.5C 243.219,21.9227 241.552,21.256 240.5,19.5 Z"/></g>
<g><path style="opacity:1" fill="#c2abf4" d="M 33.5,21.5 C 37.5273,21.2596 38.8607,22.9263 37.5,26.5C 36.2638,27.2458 34.9305,27.5792 33.5,27.5C 33.5,25.5 33.5,23.5 33.5,21.5 Z"/></g>
<g><path style="opacity:1" fill="#c0a9f4" d="M 99.5,21.5 C 103.161,21.3501 104.161,22.8501 102.5,26C 101.552,26.4828 100.552,26.6495 99.5,26.5C 99.5,24.8333 99.5,23.1667 99.5,21.5 Z"/></g>
<g><path style="opacity:1" fill="#c6b1f5" d="M 204.5,21.5 C 206.714,21.2907 208.381,22.124 209.5,24C 208.381,25.876 206.714,26.7093 204.5,26.5C 204.5,24.8333 204.5,23.1667 204.5,21.5 Z"/></g>
<g><path style="opacity:1" fill="#c0a9f4" d="M 153.5,21.5 C 156.359,21.8007 157.693,23.4673 157.5,26.5C 157.85,30.9973 156.016,32.664 152,31.5C 151.063,27.8326 151.563,24.4993 153.5,21.5 Z"/></g>
<g><path style="opacity:1" fill="#f8f6fe" d="M 69.5,19.5 C 73.226,19.1774 76.8927,19.5108 80.5,20.5C 78.4164,24.3359 76.083,28.0026 73.5,31.5C 75.8333,32.1667 78.1667,32.8333 80.5,33.5C 76.8333,34.8333 73.1667,34.8333 69.5,33.5C 71.5836,29.6641 73.917,25.9974 76.5,22.5C 73.7051,22.0615 71.3717,21.0615 69.5,19.5 Z"/></g>
<g><path style="opacity:1" fill="#f6f3fd" d="M 43.5,19.5 C 46.5788,19.2601 49.5788,19.5934 52.5,20.5C 53.952,23.2815 53.6187,25.7815 51.5,28C 53.0412,29.5793 54.2078,31.4127 55,33.5C 57.0068,28.9801 58.5068,24.3134 59.5,19.5C 61.288,19.2148 62.9547,19.5481 64.5,20.5C 66.4488,25.0104 67.7821,29.6771 68.5,34.5C 67.5,34.5 66.5,34.5 65.5,34.5C 65.5,33.5 65.5,32.5 65.5,31.5C 63.1667,31.5 60.8333,31.5 58.5,31.5C 58.5,32.5 58.5,33.5 58.5,34.5C 56.076,34.8076 53.7427,34.4742 51.5,33.5C 48.1156,26.6231 46.4489,26.9564 46.5,34.5C 45.5,34.5 44.5,34.5 43.5,34.5C 43.5,29.5 43.5,24.5 43.5,19.5 Z"/></g>
<g><path style="opacity:1" fill="#c3adf4" d="M 61.5,22.5 C 62.5783,24.5394 63.5783,26.706 64.5,29C 63.2068,29.49 61.8734,29.6567 60.5,29.5C 60.448,27.0971 60.7814,24.7638 61.5,22.5 Z"/></g>
<g><path style="opacity:1" fill="#c2acf4" d="M 46.5,21.5 C 50.1612,21.3501 51.1612,22.8501 49.5,26C 48.552,26.4828 47.552,26.6495 46.5,26.5C 46.5,24.8333 46.5,23.1667 46.5,21.5 Z"/></g>
<g><path style="opacity:1" fill="#f5f1fd" d="M 270.5,19.5 C 272.288,19.2148 273.955,19.5481 275.5,20.5C 277.099,24.7959 278.599,29.1292 280,33.5C 280.499,28.8452 280.666,24.1785 280.5,19.5C 282.144,19.2865 283.644,19.6198 285,20.5C 286.333,23.8333 287.667,27.1667 289,30.5C 289.499,26.8484 289.665,23.1817 289.5,19.5C 290.5,19.5 291.5,19.5 292.5,19.5C 292.5,24.5 292.5,29.5 292.5,34.5C 291.022,34.762 289.689,34.4287 288.5,33.5C 286.726,30.2852 285.226,26.9518 284,23.5C 283.501,27.1516 283.335,30.8183 283.5,34.5C 281.167,34.5 278.833,34.5 276.5,34.5C 276.5,33.5 276.5,32.5 276.5,31.5C 274.167,31.5 271.833,31.5 269.5,31.5C 269.5,32.5 269.5,33.5 269.5,34.5C 268.5,34.5 267.5,34.5 266.5,34.5C 267.833,29.5 269.167,24.5 270.5,19.5 Z"/></g>
<g><path style="opacity:1" fill="#c3adf4" d="M 272.5,22.5 C 273.578,24.5394 274.578,26.706 275.5,29C 274.207,29.49 272.873,29.6567 271.5,29.5C 271.448,27.0971 271.781,24.7638 272.5,22.5 Z"/></g>
<g><path style="opacity:1" fill="#f6f3fd" d="M 188.5,19.5 C 189.5,19.5 190.5,19.5 191.5,19.5C 191.338,21.5273 191.505,23.5273 192,25.5C 193.484,21.9828 195.984,20.1495 199.5,20C 197.5,22.3333 195.5,24.6667 193.5,27C 195.874,29.039 197.874,31.3723 199.5,34C 195.984,33.8505 193.484,32.0172 192,28.5C 191.505,30.4727 191.338,32.4727 191.5,34.5C 190.5,34.5 189.5,34.5 188.5,34.5C 188.5,29.5 188.5,24.5 188.5,19.5 Z"/></g>
<g><path style="opacity:1" fill="#f6f3fd" d="M 113.5,30.5 C 117.071,30.4077 118.238,32.0743 117,35.5C 115.395,38.2735 113.228,38.9402 110.5,37.5C 111.737,36.7193 112.737,35.7193 113.5,34.5C 112.193,33.135 112.193,31.8016 113.5,30.5 Z"/></g>
<g><path style="opacity:1" fill="#f3effd" d="M 297.5,31.5 C 298.833,31.5 300.167,31.5 301.5,31.5C 301.5,32.5 301.5,33.5 301.5,34.5C 300.167,34.5 298.833,34.5 297.5,34.5C 297.5,33.5 297.5,32.5 297.5,31.5 Z"/></g>
<g><path style="opacity:1" fill="#6129b9" d="M 37.5,85.5 C 38.5981,86.397 38.5981,87.2303 37.5,88C 40.1667,89.3333 40.1667,90.6667 37.5,92C 38.0738,93.7621 38.4072,95.5954 38.5,97.5C 37.5,97.5 36.5,97.5 35.5,97.5C 35.1707,112.01 35.5041,126.343 36.5,140.5C 37.1667,140.5 37.8333,140.5 38.5,140.5C 37.9524,141.688 37.6191,142.855 37.5,144C 40.1667,145.333 40.1667,146.667 37.5,148C 37.7358,149.451 37.7358,150.951 37.5,152.5C 31.8333,152.5 26.1667,152.5 20.5,152.5C 20.5,130.167 20.5,107.833 20.5,85.5C 26.1667,85.5 31.8333,85.5 37.5,85.5 Z"/></g>
<g><path style="opacity:1" fill="#6a35c2" d="M 129.5,85.5 C 129.5,89.5 129.5,93.5 129.5,97.5C 121.648,97.1746 113.982,97.508 106.5,98.5C 106.5,103.167 106.5,107.833 106.5,112.5C 113.833,112.5 121.167,112.5 128.5,112.5C 128.5,116.5 128.5,120.5 128.5,124.5C 121.167,124.5 113.833,124.5 106.5,124.5C 106.5,129.833 106.5,135.167 106.5,140.5C 114.833,140.5 123.167,140.5 131.5,140.5C 131.5,144.5 131.5,148.5 131.5,152.5C 118.167,152.5 104.833,152.5 91.5,152.5C 91.5,130.167 91.5,107.833 91.5,85.5C 104.167,85.5 116.833,85.5 129.5,85.5 Z"/></g>
<g><path style="opacity:1" fill="#7242c9" d="M 136.5,85.5 C 141.833,85.5 147.167,85.5 152.5,85.5C 156.942,102.997 162.108,120.331 168,137.5C 172.397,120.241 177.564,103.241 183.5,86.5C 188.467,85.3377 193.467,85.1711 198.5,86C 190.75,107.746 183.084,129.579 175.5,151.5C 169.872,152.495 164.206,152.829 158.5,152.5C 151.573,130.054 144.24,107.72 136.5,85.5 Z"/></g>
<g><path style="opacity:1" fill="#632dbc" d="M 37.5,85.5 C 72.542,83.6976 85.7086,99.6976 77,133.5C 72.838,142.993 65.6714,148.826 55.5,151C 49.5652,152.239 43.5652,152.739 37.5,152.5C 37.7358,150.951 37.7358,149.451 37.5,148C 40.1667,146.667 40.1667,145.333 37.5,144C 37.6191,142.855 37.9524,141.688 38.5,140.5C 58.8719,140.808 67.3719,130.808 64,110.5C 60.9809,103.639 55.8142,99.6392 48.5,98.5C 45.3752,97.5206 42.0419,97.1872 38.5,97.5C 38.4072,95.5954 38.0738,93.7621 37.5,92C 40.1667,90.6667 40.1667,89.3333 37.5,88C 38.5981,87.2303 38.5981,86.397 37.5,85.5 Z"/></g>
<g><path style="opacity:1" fill="#c2b0e2" d="M 129.5,85.5 C 130.485,89.6344 130.818,93.9677 130.5,98.5C 122.5,98.5 114.5,98.5 106.5,98.5C 113.982,97.508 121.648,97.1746 129.5,97.5C 129.5,93.5 129.5,89.5 129.5,85.5 Z"/></g>
<g><path style="opacity:1" fill="#cdbfe4" d="M 38.5,97.5 C 42.0419,97.1872 45.3752,97.5206 48.5,98.5C 44.5,98.5 40.5,98.5 36.5,98.5C 36.5,112.5 36.5,126.5 36.5,140.5C 35.5041,126.343 35.1707,112.01 35.5,97.5C 36.5,97.5 37.5,97.5 38.5,97.5 Z"/></g>
<g><path style="opacity:1" fill="#efeef2" d="M 48.5,98.5 C 55.8142,99.6392 60.9809,103.639 64,110.5C 67.3719,130.808 58.8719,140.808 38.5,140.5C 37.8333,140.5 37.1667,140.5 36.5,140.5C 36.5,126.5 36.5,112.5 36.5,98.5C 40.5,98.5 44.5,98.5 48.5,98.5 Z"/></g>
<g><path style="opacity:1" fill="#8258d8" d="M 292.5,180.5 C 300.58,179.967 308.414,180.967 316,183.5C 316.828,187.871 316.661,192.205 315.5,196.5C 308.957,192.776 301.957,191.61 294.5,193C 289.202,195.488 288.202,199.155 291.5,204C 298.131,207.327 304.798,210.66 311.5,214C 321.496,223.305 322.162,233.305 313.5,244C 301.21,250.214 288.544,251.048 275.5,246.5C 274.338,241.533 274.171,236.533 275,231.5C 283.742,238.173 293.075,239.173 303,234.5C 303.667,232.167 303.667,229.833 303,227.5C 301.442,225.641 299.609,224.141 297.5,223C 288.069,220.559 280.569,215.392 275,207.5C 271.648,198.937 273.481,191.77 280.5,186C 284.284,183.471 288.284,181.638 292.5,180.5 Z"/></g>
<g><path style="opacity:1" fill="#6129b9" d="M 59.5,193.5 C 51.5,193.5 43.5,193.5 35.5,193.5C 35.1778,199.358 35.5111,205.025 36.5,210.5C 43.5,210.5 50.5,210.5 57.5,210.5C 57.5,214.5 57.5,218.5 57.5,222.5C 50.1667,222.5 42.8333,222.5 35.5,222.5C 35.5,231.167 35.5,239.833 35.5,248.5C 30.5,248.5 25.5,248.5 20.5,248.5C 20.5,226.167 20.5,203.833 20.5,181.5C 33.5,181.5 46.5,181.5 59.5,181.5C 59.5,185.5 59.5,189.5 59.5,193.5 Z"/></g>
<g><path style="opacity:1" fill="#6833c0" d="M 70.5,181.5 C 75.1667,181.5 79.8333,181.5 84.5,181.5C 84.3334,196.17 84.5001,210.837 85,225.5C 88.7221,236.526 95.8888,239.359 106.5,234C 108.068,231.696 109.235,229.196 110,226.5C 110.5,211.504 110.667,196.504 110.5,181.5C 115.5,181.5 120.5,181.5 125.5,181.5C 125.667,196.837 125.5,212.17 125,227.5C 121.47,242.676 111.803,250.009 96,249.5C 81.7285,249.535 73.3952,242.535 71,228.5C 70.5001,212.837 70.3334,197.17 70.5,181.5 Z"/></g>
<g><path style="opacity:1" fill="#6d3ac6" d="M 140.5,181.5 C 145.167,181.5 149.833,181.5 154.5,181.5C 154.5,199.833 154.5,218.167 154.5,236.5C 162.833,236.5 171.167,236.5 179.5,236.5C 179.5,240.5 179.5,244.5 179.5,248.5C 166.5,248.5 153.5,248.5 140.5,248.5C 140.5,226.167 140.5,203.833 140.5,181.5 Z"/></g>
<g><path style="opacity:1" fill="#7646cc" d="M 189.5,181.5 C 194.5,181.5 199.5,181.5 204.5,181.5C 204.5,199.833 204.5,218.167 204.5,236.5C 212.5,236.5 220.5,236.5 228.5,236.5C 228.5,240.5 228.5,244.5 228.5,248.5C 215.5,248.5 202.5,248.5 189.5,248.5C 189.5,226.167 189.5,203.833 189.5,181.5 Z"/></g>
<g><path style="opacity:1" fill="#875fde" d="M 325.5,181.5 C 342.833,181.5 360.167,181.5 377.5,181.5C 377.5,185.5 377.5,189.5 377.5,193.5C 371.167,193.5 364.833,193.5 358.5,193.5C 358.5,211.833 358.5,230.167 358.5,248.5C 353.833,248.5 349.167,248.5 344.5,248.5C 344.5,230.167 344.5,211.833 344.5,193.5C 338.167,193.5 331.833,193.5 325.5,193.5C 325.5,189.5 325.5,185.5 325.5,181.5 Z"/></g>
<g><path style="opacity:1" fill="#906be4" d="M 397.5,181.5 C 403.537,181.171 409.537,181.504 415.5,182.5C 423.398,204.115 431.398,225.781 439.5,247.5C 434.167,248.833 428.833,248.833 423.5,247.5C 421.923,242.934 420.257,238.434 418.5,234C 410.5,233.333 402.5,233.333 394.5,234C 392.137,238.59 390.47,243.423 389.5,248.5C 384.125,248.828 378.792,248.495 373.5,247.5C 381.731,225.464 389.731,203.464 397.5,181.5 Z"/></g>
<g><path style="opacity:1" fill="#9877eb" d="M 470.5,180.5 C 478.581,180.315 486.581,180.982 494.5,182.5C 494.827,187.214 494.493,191.88 493.5,196.5C 484.368,192.367 475.368,192.534 466.5,197C 460.284,201.432 457.617,207.432 458.5,215C 458.061,228.729 464.728,235.896 478.5,236.5C 483.965,236.133 489.298,235.133 494.5,233.5C 494.5,237.833 494.5,242.167 494.5,246.5C 484.284,249.637 473.951,250.137 463.5,248C 446.845,240.089 440.011,226.922 443,208.5C 447.003,193.997 456.17,184.664 470.5,180.5 Z"/></g>
<g><path style="opacity:1" fill="#a082f2" d="M 506.5,181.5 C 511.5,181.5 516.5,181.5 521.5,181.5C 521.334,191.839 521.5,202.172 522,212.5C 528.709,202.247 535.543,192.08 542.5,182C 548.196,181.17 553.863,181.337 559.5,182.5C 551.908,192.697 544.575,203.031 537.5,213.5C 545.077,225.086 553.077,236.419 561.5,247.5C 555.528,248.664 549.528,248.83 543.5,248C 535.941,237.438 528.774,226.605 522,215.5C 521.5,226.495 521.333,237.495 521.5,248.5C 516.5,248.5 511.5,248.5 506.5,248.5C 506.5,226.167 506.5,203.833 506.5,181.5 Z"/></g>
<g><path style="opacity:1" fill="#cdc0e4" d="M 59.5,193.5 C 52.0182,194.492 44.3516,194.825 36.5,194.5C 36.5,199.833 36.5,205.167 36.5,210.5C 35.5111,205.025 35.1778,199.358 35.5,193.5C 43.5,193.5 51.5,193.5 59.5,193.5 Z"/></g>
<g><path style="opacity:1" fill="#c1afe8" d="M 325.5,181.5 C 325.5,185.5 325.5,189.5 325.5,193.5C 331.833,193.5 338.167,193.5 344.5,193.5C 344.5,211.833 344.5,230.167 344.5,248.5C 343.503,230.674 343.17,212.674 343.5,194.5C 337.167,194.5 330.833,194.5 324.5,194.5C 324.182,189.968 324.515,185.634 325.5,181.5 Z"/></g>
<g><path style="opacity:1" fill="#cdbfec" d="M 377.5,181.5 C 378.485,185.634 378.818,189.968 378.5,194.5C 372.167,194.5 365.833,194.5 359.5,194.5C 359.83,212.674 359.497,230.674 358.5,248.5C 358.5,230.167 358.5,211.833 358.5,193.5C 364.833,193.5 371.167,193.5 377.5,193.5C 377.5,189.5 377.5,185.5 377.5,181.5 Z"/></g>
<g><path style="opacity:1" fill="#eae7f2" d="M 405.5,193.5 C 406.649,193.791 407.316,194.624 407.5,196C 409.935,204.573 412.602,213.073 415.5,221.5C 409.537,222.496 403.537,222.829 397.5,222.5C 400.171,212.823 402.837,203.157 405.5,193.5 Z"/></g>
<g><path style="opacity:1" fill="#7a4cd2" d="M 237.5,217.5 C 245.833,217.5 254.167,217.5 262.5,217.5C 262.5,220.833 262.5,224.167 262.5,227.5C 254.167,227.5 245.833,227.5 237.5,227.5C 237.5,224.167 237.5,220.833 237.5,217.5 Z"/></g>
<g><path style="opacity:1" fill="#a98df8" d="M 570.5,234.5 C 578.712,233.226 582.546,236.559 582,244.5C 580.471,247.934 577.804,249.6 574,249.5C 567.192,248.893 564.526,245.227 566,238.5C 567.397,236.93 568.897,235.596 570.5,234.5 Z"/></g>
</svg>
